<?xml version="1.0" encoding="UTF-8"?>
<svg id="Layer_1" data-name="Layer 1" xmlns="http://www.w3.org/2000/svg" viewBox="0 0 134.55 131.93">
  <defs>
    <style>
      .cls-1 {
        fill: #fff;
      }
    </style>
  </defs>
  <path class="cls-1" d="M32.78,64.12c0,1.1-1.04,2-2.32,2s-2.32-.9-2.32-2,1.04-2,2.32-2,2.32,.9,2.32,2Z"/>
  <path class="cls-1" d="M52.89,97.79c0,1.1-1.04,2-2.32,2s-2.32-.9-2.32-2,1.04-2.01,2.32-2.01,2.32,.9,2.32,2.01Z"/>
  <path class="cls-1" d="M39.6,76.88c1.27,0,2.32,.9,2.32,2s-1.04,2-2.32,2-2.32-.9-2.32-2,1.04-2,2.32-2Z"/>
  <path class="cls-1" d="M48.61,42.57c0,1.1-1.04,2-2.32,2s-2.32-.9-2.32-2,1.04-2,2.32-2,2.32,.9,2.32,2Z"/>
  <path class="cls-1" d="M106.62,27.54c-12.74-2.13-24.78-6.34-33.65-12.6-5.99-4.22-10.42-9.41-12.59-14.94-.02,.05-.04,.1-.06,.15-.5,1.27-1.13,2.52-1.87,3.74-.04,.07-.08,.14-.13,.21-2.44,3.97-6.06,7.67-10.53,10.83-5.69,4.02-12.69,7.2-20.35,9.52-4.26,1.3-8.73,2.33-13.29,3.09-4.63,.78-9.39,1.27-14.16,1.42,.08,2.37,.23,4.74,.43,7.1,.11,1.34,.25,2.68,.4,4.02,1.88,16.46,6.68,32.65,15.03,47.5,3.3,5.88,7.18,11.53,11.59,16.86,8.93,10.82,20.03,20.28,32.88,27.49h0s0-.66,0-.66c0,0,0,0,0,0v-31.46h-3.86c-.93,2.03-3.23,3.46-5.9,3.46-3.5,0-6.35-2.45-6.35-5.47s2.85-5.48,6.35-5.48c2.68,0,4.97,1.44,5.9,3.47h3.86v-14.97h-14.79c-.91,2.08-3.23,3.56-5.94,3.56-3.5,0-6.35-2.46-6.35-5.48s2.85-5.48,6.35-5.48c2.64,0,4.91,1.4,5.87,3.39h14.87v-10.41l-24.08-.02c-.99,1.91-3.21,3.23-5.79,3.23-3.5,0-6.35-2.46-6.35-5.48s2.85-5.48,6.35-5.48c2.78,0,5.15,1.55,6.01,3.7l23.87,.02v-17.58c-2.75,0-5.49,0-8.23,0-.99,1.92-3.22,3.26-5.81,3.26s-4.74-1.3-5.75-3.16c-.39-.7-.6-1.49-.6-2.32,0-.59,.11-1.17,.31-1.7,.83-2.19,3.22-3.78,6.03-3.78s5.12,1.54,5.99,3.67h8.05V7.13c2.75,4.09,6.8,7.82,11.78,10.89,9.31,5.76,21.65,9.29,34.52,10.71,4.65,.51,9.39,.74,14.14,.63,0-.13,.01-.27,.02-.4-4.78-.15-9.53-.65-14.16-1.42Z"/>
  <path class="cls-1" d="M109.66,46.82c-.02,5.86-.04,11.72-.06,17.59,0,1.11-1.04,2.01-2.33,2.01l-46.93-.04v-4.03l44.6,.04c-.03-5.18-.05-10.35-.08-15.53,.45-.78,1.37-1.29,2.38-1.3,1.02-.01,1.96,.48,2.43,1.26Z"/>
  <path class="cls-1" d="M130.78,69.21v9.54c0,1.11-.96,2.01-2.15,2.01l-68.3,.05v-4.03l66.15-.04v-7.53c0-.15,.02-.29,.05-.42,.21-.91,1.07-1.59,2.1-1.59s1.92,.7,2.11,1.64c.03,.13,.04,.25,.04,.38Z"/>
  <path class="cls-1" d="M99.16,110.92c0,1.11-1.04,2.01-2.33,2.01h-9.53c-1.29,0-2.33-.9-2.33-2.01v-11.12h-24.63v-4.03h26.96c1.29,0,2.33,.9,2.33,2.02v11.12h7.2c1.29,0,2.33,.9,2.33,2.01Z"/>
  <path class="cls-1" d="M107.35,37.79c-3.5,0-6.35,2.45-6.35,5.47,0,2.28,1.62,4.24,3.93,5.06,.75,.27,1.56,.42,2.42,.42,.79,0,1.55-.13,2.25-.35,2.4-.79,4.1-2.79,4.1-5.13,0-3.02-2.85-5.47-6.35-5.47Zm0,7.47c-1.28,0-2.32-.9-2.32-2s1.04-2,2.32-2,2.32,.9,2.32,2-1.04,2-2.32,2Z"/>
  <path class="cls-1" d="M128.7,58.22c-3.23,0-5.85,2.46-5.85,5.48,0,2.31,1.53,4.28,3.69,5.09,.67,.25,1.4,.39,2.16,.39,.72,0,1.41-.12,2.04-.34,2.22-.78,3.81-2.79,3.81-5.14,0-3.02-2.62-5.48-5.85-5.48Zm0,7.48c-1.17,0-2.14-.9-2.14-2s.96-2,2.14-2,2.14,.9,2.14,2-.96,2-2.14,2Z"/>
  <path class="cls-1" d="M101.7,105.14c-2.81,0-5.2,1.58-6.03,3.78-.21,.54-.31,1.11-.31,1.7,0,.83,.21,1.61,.6,2.32,1.01,1.86,3.21,3.16,5.75,3.16,3.5,0,6.35-2.46,6.35-5.48s-2.85-5.48-6.35-5.48Zm0,7.48c-1.27,0-2.32-.9-2.32-2s1.04-2,2.32-2,2.32,.9,2.32,2-1.04,2-2.32,2Z"/>
  <path class="cls-1" d="M83.17,42.77c-.54,.66-1.08,1.32-1.62,1.99h-2.02c-6.4,0-12.8,0-19.2,.02v-4.02h20.11c1.52,0,2.73,.9,2.73,2.02Z"/>
  <path class="cls-1" d="M85.52,37.48c-2.6,0-4.83,1.35-5.81,3.28-.08,.16-.16,.33-.22,.49-.21,.54-.31,1.11-.31,1.7,0,.63,.12,1.24,.36,1.81,.07,.17,.15,.34,.24,.51,1.01,1.86,3.21,3.16,5.75,3.16,3.5,0,6.35-2.46,6.35-5.48s-2.85-5.48-6.35-5.48Zm0,7.48c-1.27,0-2.32-.9-2.32-2s1.04-2,2.32-2,2.32,.9,2.32,2-1.04,2-2.32,2Z"/>
</svg>